<?xml version="1.0" encoding="UTF-8"?>
<svg xmlns="http://www.w3.org/2000/svg" xmlns:xlink="http://www.w3.org/1999/xlink" width="365pt" height="365pt" viewBox="0 0 365 365" version="1.1">
<g id="surface1">
<rect x="0" y="0" width="365" height="365" style="fill:rgb(10.998535%,39.99939%,69.398499%);fill-opacity:1;stroke:none;"/>
<path style=" stroke:none;fill-rule:nonzero;fill:rgb(100%,100%,100%);fill-opacity:1;" d="M 95.972656 305.019531 L 123.902344 288.117188 C 129.292969 297.671875 134.195313 305.753906 145.953125 305.753906 C 157.222656 305.753906 164.328125 301.34375 164.328125 284.195313 L 164.328125 167.570313 L 198.632813 167.570313 L 198.632813 284.679688 C 198.632813 320.207031 177.804688 336.378906 147.425781 336.378906 C 119.984375 336.378906 104.058594 322.167969 95.972656 305.019531 "/>
<path style=" stroke:none;fill-rule:nonzero;fill:rgb(100%,100%,100%);fill-opacity:1;" d="M 217.261719 301.34375 L 245.191406 285.171875 C 252.542969 297.179688 262.097656 306 279.003906 306 C 293.214844 306 302.277344 298.894531 302.277344 289.09375 C 302.277344 277.335938 292.96875 273.167969 277.289063 266.308594 L 268.714844 262.632813 C 243.96875 252.097656 227.550781 238.867188 227.550781 210.9375 C 227.550781 185.210938 247.152344 165.609375 277.777344 165.609375 C 299.585938 165.609375 315.265625 173.207031 326.535156 193.050781 L 299.828125 210.203125 C 293.945313 199.667969 287.578125 195.503906 277.777344 195.503906 C 267.734375 195.503906 261.363281 201.871094 261.363281 210.203125 C 261.363281 220.492188 267.734375 224.65625 282.433594 231.027344 L 291.007813 234.703125 C 320.164063 247.199219 336.578125 259.9375 336.578125 288.605469 C 336.578125 319.476563 312.324219 336.382813 279.738281 336.382813 C 247.886719 336.382813 227.304688 321.191406 217.261719 301.34375 "/>
</g>
</svg>
